<svg width="36" height="36" viewBox="0 0 36 36" fill="none" xmlns="http://www.w3.org/2000/svg">
<path d="M18.0001 -0.00109863C17.1739 -0.00109863 16.5039 0.66892 16.5039 1.49507V4.45776C16.5039 5.28391 17.1739 5.95393 18.0001 5.95393C18.8262 5.95393 19.4962 5.28391 19.4962 4.45776V1.49507C19.4962 0.66892 18.8262 -0.00109863 18.0001 -0.00109863Z" fill="#19191b"/>
<path d="M18.0001 30.0454C17.1739 30.0454 16.5039 30.7154 16.5039 31.5416V34.5039C16.5039 35.33 17.1739 36 18.0001 36C18.8262 36 19.4962 35.33 19.4962 34.5039V31.5416C19.4962 30.7154 18.8262 30.0454 18.0001 30.0454Z" fill="#19191b"/>
<path d="M34.5048 16.5035H31.5421C30.7159 16.5035 30.0459 17.1736 30.0459 17.9997C30.0459 18.8259 30.7159 19.4959 31.5421 19.4959H34.5048C35.3309 19.4959 36.0009 18.8259 36.0009 17.9997C36.0009 17.1736 35.3309 16.5035 34.5048 16.5035Z" fill="#19191b"/>
<path d="M5.95405 17.9997C5.95405 17.1736 5.28403 16.5035 4.45788 16.5035H1.49519C0.669042 16.5035 -0.000976562 17.1736 -0.000976562 17.9997C-0.000976562 18.8259 0.669042 19.4959 1.49519 19.4959H4.45788C5.28403 19.4959 5.95405 18.8259 5.95405 17.9997Z" fill="#19191b"/>
<path d="M5.52407 23.4747L2.95838 24.9562C2.24286 25.3695 1.9974 26.2846 2.41068 27.0001C2.68787 27.4802 3.19091 27.7486 3.70772 27.7486C3.96153 27.7486 4.2191 27.6839 4.45455 27.5478L7.02024 26.0663C7.73576 25.653 7.98123 24.7379 7.56794 24.0224C7.15424 23.3064 6.23876 23.061 5.52407 23.4747Z" fill="#19191b"/>
<path d="M29.7282 12.7251C29.982 12.7251 30.2392 12.6603 30.4751 12.5243L33.0407 11.0431C33.7563 10.6298 34.0017 9.71477 33.5885 8.99925C33.1752 8.28331 32.2609 8.03826 31.5446 8.45154L28.9789 9.93268C28.2634 10.346 28.0179 11.261 28.4312 11.9765C28.7084 12.4566 29.2114 12.7251 29.7282 12.7251Z" fill="#19191b"/>
<path d="M11.0433 2.95829C10.63 2.24235 9.71409 1.99772 8.9994 2.41059C8.28388 2.82387 8.03841 3.73893 8.4517 4.45445L9.93325 7.02014C10.2104 7.50022 10.7135 7.76865 11.2303 7.76865C11.4841 7.76865 11.7417 7.70394 11.9771 7.56785C12.6926 7.15457 12.9381 6.2395 12.5248 5.52398L11.0433 2.95829Z" fill="#19191b"/>
<path d="M26.0667 28.9792C25.6534 28.2633 24.7379 28.0182 24.0228 28.4315C23.3073 28.8448 23.0619 29.7599 23.4751 30.4754L24.9567 33.0411C25.2339 33.5212 25.7369 33.7896 26.2537 33.7896C26.5075 33.7896 26.7651 33.7249 27.0006 33.5888C27.7161 33.1755 27.9615 32.2604 27.5483 31.5449L26.0667 28.9792Z" fill="#19191b"/>
<path d="M33.0407 24.9561L30.4751 23.4746C29.7608 23.0617 28.8445 23.3063 28.4312 24.0223C28.0179 24.7378 28.2634 25.6528 28.9789 26.0661L31.5446 27.5477C31.78 27.6838 32.0372 27.7485 32.2914 27.7485C32.8082 27.7485 33.3113 27.4801 33.5885 27C34.0017 26.2845 33.7563 25.3694 33.0407 24.9561Z" fill="#19191b"/>
<path d="M7.02024 9.93268L4.45455 8.45154C3.73861 8.03826 2.82396 8.28331 2.41068 8.99925C1.9974 9.71477 2.24286 10.6298 2.95838 11.0431L5.52407 12.5243C5.75994 12.6603 6.01709 12.7251 6.27091 12.7251C6.78772 12.7251 7.29075 12.4566 7.56794 11.9765C7.98123 11.261 7.73576 10.346 7.02024 9.93268Z" fill="#19191b"/>
<path d="M11.9771 28.4315C11.2633 28.019 10.347 28.2628 9.93325 28.9792L8.4517 31.5449C8.03841 32.2604 8.28388 33.1755 8.9994 33.5888C9.23484 33.7248 9.492 33.7895 9.74623 33.7895C10.263 33.7895 10.7661 33.5211 11.0433 33.041L12.5248 30.4754C12.9381 29.7598 12.6926 28.8448 11.9771 28.4315Z" fill="#19191b"/>
<path d="M27.0006 2.41055C26.2863 1.99769 25.37 2.2419 24.9567 2.95826L23.4751 5.52395C23.0619 6.23947 23.3073 7.15454 24.0228 7.56782C24.2583 7.70391 24.5154 7.76862 24.7697 7.76862C25.2865 7.76862 25.7895 7.50019 26.0667 7.02011L27.5483 4.45442C27.9615 3.7389 27.7161 2.82384 27.0006 2.41055Z" fill="#19191b"/>
<path fill-rule="evenodd" clip-rule="evenodd" d="M18.0002 24.1876C21.4177 24.1876 24.1881 21.4172 24.1881 17.9997C24.1881 14.5822 21.4177 11.8118 18.0002 11.8118C14.5827 11.8118 11.8123 14.5822 11.8123 17.9997C11.8123 21.4172 14.5827 24.1876 18.0002 24.1876ZM18.0002 27.1385C23.0474 27.1385 27.139 23.0469 27.139 17.9997C27.139 12.9524 23.0474 8.86084 18.0002 8.86084C12.9529 8.86084 8.86133 12.9524 8.86133 17.9997C8.86133 23.0469 12.9529 27.1385 18.0002 27.1385Z" fill="#19191b"/>
</svg>
