<svg width="37" height="38" viewBox="0 0 37 38" fill="none" xmlns="http://www.w3.org/2000/svg">
<path d="M18.8579 0.728149C12.5839 3.51343 6.09073 6.23771 0.71582 8.64056V29.9306C6.98489 32.476 13.4698 35.093 18.8579 37.2719C25.3221 34.6389 31.3294 32.2521 37 29.9306V8.64056C30.7224 5.91558 24.2579 3.04677 18.8579 0.728149ZM18.8579 4.10518L31.7596 9.71729L18.8579 15.7535L5.95619 9.71729L18.8579 4.10518ZM3.65778 12.0665L17.3869 18.478V33.3565L3.65778 27.8097V12.0665ZM34.058 12.0665V27.8097L20.3289 33.3565V18.478L34.058 12.0665ZM7.53443 15.8677C6.88391 15.8865 6.27758 16.4205 6.13789 17.0972C5.9982 17.7739 6.33843 18.5292 6.92152 18.8369L11.8248 21.4472C12.5166 21.8946 13.539 21.5821 13.9027 20.8122C14.2664 20.0423 13.8923 18.982 13.1425 18.6574C11.503 17.9656 9.05137 16.3994 7.53443 15.8677Z" fill="#545D82"/>
</svg>
