<svg width="36" height="36" viewBox="0 0 36 36" fill="none" xmlns="http://www.w3.org/2000/svg">
<path d="M19.1608 15.6774V9.81287C19.16 9.59097 19.0882 9.37516 18.9558 9.19703C18.8235 9.0189 18.6377 8.8878 18.4255 8.8229C18.2133 8.75801 17.9859 8.76273 17.7765 8.83639C17.5672 8.91004 17.387 9.04875 17.2621 9.23222L11.2931 18.1916C11.1543 18.3994 11.0751 18.6413 11.0639 18.891C11.0527 19.1407 11.11 19.3887 11.2296 19.6081C11.3492 19.8276 11.5265 20.0101 11.7424 20.1361C11.9583 20.262 12.2045 20.3265 12.4544 20.3225H16.8383V26.338C16.8386 26.5507 16.9073 26.7577 17.0341 26.9285C17.1609 27.0993 17.3393 27.2248 17.5428 27.2865C17.7463 27.3483 17.9644 27.3431 18.1647 27.2716C18.3651 27.2002 18.5372 27.0663 18.6557 26.8896L24.706 17.8083C24.8448 17.6005 24.924 17.3586 24.9352 17.1089C24.9464 16.8593 24.8891 16.6113 24.7695 16.3918C24.65 16.1724 24.4726 15.9898 24.2567 15.8639C24.0408 15.7379 23.7946 15.6734 23.5447 15.6774H19.1608Z" fill="#19191b"/>
<path d="M32.8032 11.3777C33.6364 10.8967 33.9218 9.83135 33.4408 8.99819C32.9598 8.16504 31.8944 7.87958 31.0613 8.3606C30.2281 8.84162 29.9427 9.90697 30.4237 10.7401C30.9047 11.5733 31.9701 11.8587 32.8032 11.3777Z" fill="#19191b"/>
<path d="M27.6352 4.93796C28.1162 4.10481 27.8307 3.03946 26.9976 2.55844C26.1644 2.07742 25.0991 2.36288 24.618 3.19603C24.137 4.02918 24.4225 5.09454 25.2556 5.57556C26.0888 6.05658 27.1541 5.77112 27.6352 4.93796Z" fill="#19191b"/>
<path d="M32.5161 18C32.5161 20.871 31.6648 23.6776 30.0697 26.0647C28.4747 28.4519 26.2076 30.3125 23.5551 31.4111C20.9026 32.5098 17.9839 32.7973 15.168 32.2372C12.3522 31.6771 9.76567 30.2946 7.73555 28.2644C5.70544 26.2343 4.32291 23.6478 3.7628 20.832C3.20269 18.0161 3.49016 15.0974 4.58885 12.4449C5.68754 9.79244 7.54811 7.52533 9.93528 5.93028C12.3224 4.33523 15.129 3.48387 18 3.48387H19.7419V0H18C14.4399 0 10.9598 1.05568 7.99974 3.03355C5.03966 5.01141 2.73255 7.82263 1.37018 11.1117C0.0077991 14.4008 -0.348661 18.02 0.345873 21.5116C1.04041 25.0033 2.75474 28.2106 5.27209 30.7279C7.78943 33.2453 10.9967 34.9596 14.4884 35.6541C17.98 36.3487 21.5992 35.9922 24.8883 34.6298C28.1774 33.2674 30.9886 30.9603 32.9665 28.0003C34.9443 25.0402 36 21.5601 36 18V16.2581H32.5161V18Z" fill="#19191b"/>
</svg>
