<svg width="95" height="20" viewBox="0 0 95 20" fill="none" xmlns="http://www.w3.org/2000/svg">
<path d="M27.0403 0C27.2937 0.0283688 27.5489 0.0407801 27.8005 0.0868794C28.3545 0.187943 28.9173 0.269504 29.459 0.423759C30.7488 0.792553 31.4426 1.70922 31.6995 3.01418C31.8672 3.86702 31.8882 4.72872 31.8934 5.59043C31.9022 6.72163 31.9039 7.85461 31.8515 8.98582C31.8218 9.60816 31.7169 10.2376 31.5684 10.844C31.301 11.9255 30.5827 12.6011 29.5499 12.9539C28.6394 13.266 27.6974 13.3723 26.745 13.3777C24.6007 13.3883 22.4546 13.3972 20.3103 13.3564C19.6252 13.344 18.9332 13.2199 18.2638 13.0674C16.7714 12.7287 15.9011 11.7553 15.6914 10.2234C15.5883 9.46986 15.5393 8.7039 15.5288 7.94149C15.5114 6.73227 15.5201 5.52128 15.5673 4.31383C15.5883 3.75355 15.6826 3.18794 15.8137 2.64184C16.0758 1.54787 16.7714 0.833333 17.8182 0.460993C18.5574 0.198582 19.3212 0.0957447 20.0971 0.0407801C20.1915 0.0336879 20.2841 0.0141844 20.3767 0C22.5962 0 24.8191 0 27.0403 0ZM23.7111 1.32979C23.7111 1.33865 23.7111 1.34929 23.7111 1.35816C22.6923 1.35816 21.6717 1.33865 20.6528 1.36525C20.0412 1.38121 19.426 1.43794 18.8231 1.53369C17.9755 1.67021 17.453 2.19504 17.2869 3.05319C17.2188 3.40603 17.1611 3.76596 17.1541 4.12411C17.1279 5.4539 17.1104 6.78191 17.1192 8.1117C17.1227 8.74645 17.1629 9.38298 17.238 10.0142C17.3778 11.1791 17.8374 11.7092 18.9769 11.883C19.807 12.0089 20.6581 12.0355 21.5004 12.0443C23.2463 12.0638 24.9921 12.0585 26.738 12.0284C27.3899 12.0177 28.0487 11.9486 28.6901 11.8333C29.466 11.695 29.9484 11.1879 30.1039 10.4007C30.1843 9.99291 30.2559 9.57624 30.2629 9.16312C30.2874 7.69326 30.3014 6.22163 30.2822 4.75177C30.2734 4.15425 30.2018 3.55319 30.0934 2.96454C29.9554 2.21454 29.4852 1.73759 28.7425 1.56915C28.3895 1.48936 28.0277 1.41667 27.6695 1.40603C26.35 1.36702 25.0306 1.35284 23.7111 1.32979Z" fill="#474F6A"/>
<path d="M44.6917 0C44.9451 0.0283688 45.2002 0.0407801 45.4519 0.0868794C46.0059 0.187943 46.5686 0.269504 47.1104 0.423759C48.4001 0.792553 49.0939 1.70922 49.3508 3.01418C49.5186 3.86702 49.5396 4.72872 49.5448 5.59043C49.5535 6.72163 49.5553 7.85461 49.5029 8.98582C49.4732 9.60816 49.3683 10.2376 49.2197 10.844C48.9524 11.9255 48.2341 12.6011 47.2013 12.9539C46.2908 13.266 45.3488 13.3723 44.3963 13.3777C42.252 13.3883 40.106 13.3972 37.9617 13.3564C37.2766 13.344 36.5845 13.2199 35.9152 13.0674C34.4228 12.7287 33.5524 11.7553 33.3427 10.2234C33.2396 9.46986 33.1907 8.7039 33.1802 7.94149C33.1627 6.73227 33.1715 5.52128 33.2187 4.31383C33.2396 3.75355 33.334 3.18794 33.4651 2.64184C33.7272 1.54787 34.4228 0.833333 35.4696 0.460993C36.2088 0.198582 36.9725 0.0957447 37.7485 0.0407801C37.8428 0.0336879 37.9354 0.0141844 38.0281 0C40.2475 0 42.4687 0 44.6917 0ZM41.3503 1.32979C41.3503 1.33865 41.3503 1.34929 41.3503 1.35816C40.3384 1.35816 39.3248 1.33865 38.3129 1.36525C37.6943 1.38121 37.0721 1.43794 36.4622 1.53723C35.6251 1.67376 35.1043 2.19504 34.94 3.04433C34.8719 3.39716 34.8107 3.75709 34.8037 4.11525C34.7775 5.44503 34.76 6.77305 34.7688 8.10284C34.7723 8.74468 34.8125 9.39007 34.8894 10.0266C35.0292 11.1809 35.4958 11.7163 36.616 11.883C37.4671 12.0089 38.3391 12.0319 39.2025 12.0461C40.6407 12.0709 42.0808 12.0656 43.5191 12.0479C44.3142 12.0372 45.1111 12.0089 45.901 11.9273C47.1121 11.8014 47.6871 11.2199 47.8304 9.99645C47.9073 9.34574 47.9405 8.68617 47.9492 8.03014C47.965 6.94858 47.965 5.86525 47.9318 4.78369C47.9143 4.17908 47.8514 3.57092 47.7448 2.97518C47.6085 2.21631 47.1314 1.73582 46.3816 1.56738C46.0356 1.48936 45.6808 1.41844 45.3296 1.4078C44.0031 1.36702 42.6767 1.35284 41.3503 1.32979Z" fill="#474F6A"/>
<path d="M0 0.29783C0.0821376 0.290738 0.166023 0.276553 0.24816 0.276553C4.83913 0.27478 9.42835 0.27478 14.0193 0.27478C14.0945 0.27478 14.1696 0.27478 14.2605 0.27478C14.2605 0.728681 14.2605 1.16308 14.2605 1.60989C12.1564 1.60989 10.061 1.60989 7.94113 1.60989C7.94113 5.44499 7.94113 9.26946 7.94113 13.1063C7.40287 13.1063 6.88907 13.1063 6.3578 13.1063C6.3578 9.28541 6.3578 5.46627 6.3578 1.61343C4.22572 1.61343 2.11286 1.61343 0 1.61343C0 1.17549 0 0.735773 0 0.29783Z" fill="#474F6A"/>
<path d="M0 18.7269C0.0699043 18.7003 0.139809 18.6737 0.16777 18.6631C0.325055 18.7553 0.447388 18.8617 0.590692 18.9042C0.744481 18.9503 0.901766 18.9025 0.966428 18.7234C1.02934 18.5461 0.926233 18.4379 0.791667 18.3617C0.658848 18.2872 0.510302 18.2358 0.375736 18.1649C0.148547 18.0443 0.0594187 17.8847 0.089128 17.6737C0.120585 17.4556 0.28486 17.2943 0.52603 17.2482C0.826619 17.1915 1.07303 17.3138 1.20235 17.5904C1.14643 17.6259 1.08876 17.6631 1.06429 17.6791C0.92099 17.5993 0.805648 17.5053 0.676325 17.4681C0.540011 17.4308 0.412436 17.4964 0.361755 17.6489C0.312822 17.7978 0.391464 17.8971 0.515545 17.9556C0.653606 18.023 0.800405 18.0691 0.938466 18.1347C1.1709 18.2464 1.25828 18.4078 1.23381 18.6631C1.21284 18.8847 1.07478 19.0461 0.845843 19.1081C0.499816 19.2021 0.218451 19.101 0.00349522 18.8103C0 18.7819 0 18.7535 0 18.7269Z" fill="#474F6A"/>
<path d="M51.3604 13.1206C51.3604 8.83689 51.3604 4.57271 51.3604 0.285478C51.4355 0.281932 51.5106 0.27484 51.584 0.27484C55.1404 0.27484 58.6951 0.271293 62.2515 0.276613C62.8736 0.278386 63.4905 0.342215 64.0882 0.540797C64.9148 0.817393 65.4111 1.37058 65.5352 2.25534C65.6436 3.03193 65.6768 3.80498 65.4391 4.56562C65.1892 5.36704 64.6771 5.89895 63.8627 6.11172C63.8435 6.11704 63.8243 6.12413 63.8051 6.13299C63.7998 6.13477 63.7981 6.14363 63.7824 6.16846C63.8453 6.18264 63.9012 6.19505 63.9571 6.20569C65.1717 6.45746 65.9599 7.29611 66.1014 8.54611C66.1871 9.31384 66.1591 10.0869 65.9896 10.8458C65.7991 11.7004 65.294 12.2908 64.4901 12.6224C63.7824 12.9131 63.0379 13.0408 62.2847 13.0692C61.2239 13.1099 60.1631 13.1135 59.1005 13.117C56.6067 13.1259 54.1128 13.1206 51.619 13.1206C51.5369 13.1206 51.4547 13.1206 51.3604 13.1206ZM52.9384 11.7695C53.0223 11.7748 53.0835 11.7819 53.1447 11.7819C55.8395 11.7784 58.5343 11.7802 61.2308 11.7624C61.8285 11.7589 62.4315 11.711 63.0221 11.6241C63.9134 11.4929 64.3835 11.0355 64.4709 10.2305C64.5268 9.71278 64.5443 9.18619 64.5216 8.66668C64.4797 7.71455 64.1144 7.28725 63.1847 7.14541C62.5188 7.04257 61.839 6.98406 61.1644 6.97874C58.4976 6.95746 55.829 6.96633 53.1621 6.96455C53.0887 6.96455 53.0153 6.96455 52.9384 6.96455C52.9384 8.5798 52.9384 10.1631 52.9384 11.7695ZM52.9367 5.61172C53.0171 5.61704 53.0783 5.6259 53.1394 5.6259C55.7801 5.62236 58.4207 5.62413 61.0613 5.6064C61.5891 5.60285 62.1221 5.55143 62.6447 5.46987C63.4433 5.34576 63.8418 4.97874 63.9519 4.25179C64.0183 3.80853 64.0358 3.34753 63.9991 2.89895C63.9396 2.15782 63.6583 1.84399 62.9295 1.73051C62.3668 1.64363 61.7901 1.61881 61.2204 1.61704C58.5378 1.6064 55.8552 1.61172 53.1726 1.61172C53.0975 1.61172 53.0241 1.61172 52.9402 1.61172C52.9367 2.95569 52.9367 4.26952 52.9367 5.61172Z" fill="#474F6A"/>
<path d="M67.9678 0.289062C68.4781 0.289062 68.9866 0.289062 69.5266 0.289062C69.5266 4.11176 69.5266 7.93445 69.5266 11.7837C72.8873 11.7837 76.2165 11.7837 79.5544 11.7837C79.5544 12.2394 79.5544 12.6667 79.5544 13.1082C75.6922 13.1082 71.837 13.1082 67.9678 13.1082C67.9678 8.84048 67.9678 4.57098 67.9678 0.289062Z" fill="#474F6A"/>
<path d="M94.9475 0.269531C94.9475 0.721659 94.9475 1.15783 94.9475 1.60286C90.3583 1.60286 85.7779 1.60286 81.1816 1.60286C81.1816 1.16492 81.1816 0.723432 81.1816 0.269531C85.7621 0.269531 90.3478 0.269531 94.9475 0.269531Z" fill="#474F6A"/>
<path d="M94.9497 5.62061C94.9497 6.06919 94.9497 6.50536 94.9497 6.95217C90.3552 6.95217 85.7712 6.95217 81.1768 6.95217C81.1768 6.50713 81.1768 6.07096 81.1768 5.62061C85.7607 5.62061 90.3465 5.62061 94.9497 5.62061Z" fill="#474F6A"/>
<path d="M81.1748 13.0638C81.1748 12.64 81.1748 12.234 81.1748 11.8156C85.764 11.8156 90.3445 11.8156 94.9407 11.8156C94.9407 12.2234 94.9407 12.6365 94.9407 13.0638C90.362 13.0638 85.7763 13.0638 81.1748 13.0638Z" fill="#474F6A"/>
<path d="M18.8213 19.0603C18.7339 19.0603 18.671 19.0603 18.5801 19.0603C18.5801 18.8174 18.5801 18.5798 18.5801 18.3422C18.5801 18.1791 18.5854 18.016 18.5731 17.8546C18.5557 17.6153 18.4246 17.477 18.2149 17.4557C17.9755 17.4326 17.7902 17.539 17.7343 17.7695C17.6941 17.938 17.6906 18.1188 17.6854 18.2943C17.6784 18.5408 17.6836 18.7872 17.6836 19.0514C17.5997 19.0514 17.5298 19.0514 17.4389 19.0514C17.4389 18.6684 17.4477 18.2872 17.4372 17.9078C17.4267 17.5231 17.1209 17.3245 16.8081 17.5124C16.6945 17.5798 16.5931 17.7447 16.5704 17.8794C16.5267 18.1348 16.5424 18.4007 16.5372 18.6614C16.5337 18.7872 16.5372 18.9149 16.5372 19.0532C16.455 19.0532 16.3904 19.0532 16.3135 19.0532C16.3135 18.4787 16.3135 17.9078 16.3135 17.3316C16.469 17.2731 16.5581 17.3085 16.5477 17.4468C16.7294 17.3794 16.9112 17.2802 17.1034 17.25C17.3306 17.2145 17.4984 17.3564 17.6224 17.5692C17.7727 17.3688 17.958 17.2465 18.2026 17.2411C18.5539 17.2341 18.8038 17.4415 18.8178 17.7943C18.8335 18.2075 18.8213 18.6241 18.8213 19.0603Z" fill="#474F6A"/>
<path d="M68.0395 19.0585C67.9521 19.0585 67.8892 19.0585 67.8001 19.0585C67.8001 18.844 67.8001 18.633 67.8001 18.422C67.7983 18.2305 67.8053 18.039 67.7931 17.8493C67.7773 17.6099 67.6428 17.4716 67.4331 17.4521C67.1936 17.4291 67.0154 17.5372 66.9525 17.7677C66.9193 17.8883 66.9088 18.0177 66.907 18.1436C66.9 18.4397 66.9053 18.7358 66.9053 19.0479C66.8214 19.0479 66.7497 19.0479 66.6606 19.0479C66.6606 18.6631 66.6694 18.2819 66.6589 17.9007C66.6484 17.5177 66.3408 17.3191 66.028 17.5088C65.9144 17.578 65.8148 17.7411 65.7921 17.8776C65.7484 18.1259 65.7641 18.3847 65.7589 18.6383C65.7554 18.7713 65.7589 18.9042 65.7589 19.0514C65.675 19.0514 65.6103 19.0514 65.5352 19.0514C65.5352 18.4752 65.5352 17.9042 65.5352 17.3298C65.6977 17.2659 65.7781 17.312 65.7711 17.4415C65.9546 17.3741 66.1363 17.2748 66.3286 17.2464C66.5558 17.211 66.7235 17.3546 66.8476 17.5656C67.0032 17.3564 67.1954 17.2358 67.4505 17.2376C67.7826 17.2393 68.0238 17.4362 68.0395 17.7713C68.0535 18.195 68.0395 18.6188 68.0395 19.0585Z" fill="#474F6A"/>
<path d="M44.5067 18.1419C44.0663 18.1419 43.6364 18.1419 43.2082 18.1419C43.1121 18.6951 43.5665 18.9362 44.3669 18.7536C44.3861 18.8227 44.4053 18.8919 44.4228 18.9593C44.075 19.1862 43.3165 19.1809 43.0247 18.7589C42.7328 18.3369 42.7923 17.6117 43.1628 17.2766C43.4231 17.0408 43.8478 16.9894 44.1397 17.1578C44.4368 17.3316 44.594 17.7341 44.5067 18.1419ZM43.1925 17.8724C43.5332 17.8724 43.8583 17.8724 44.1816 17.8724C44.1921 17.5408 44.0348 17.3387 43.7604 17.3192C43.4511 17.2979 43.2379 17.5018 43.1925 17.8724Z" fill="#474F6A"/>
<path d="M26.5005 18.7996C26.5005 19.195 26.5005 19.5549 26.5005 19.9308C26.4289 19.9308 26.366 19.9308 26.2891 19.9308C26.2891 19.062 26.2891 18.1968 26.2891 17.3191C26.3572 17.3191 26.4166 17.3191 26.4883 17.3191C26.497 17.3971 26.504 17.4698 26.5128 17.5549C26.5425 17.5372 26.5634 17.5319 26.5739 17.5194C26.7976 17.2482 27.079 17.1755 27.4023 17.2872C27.7274 17.4007 27.8864 17.6631 27.9196 17.9929C27.9388 18.179 27.9248 18.3758 27.8846 18.5567C27.82 18.8439 27.6347 19.0407 27.3429 19.1134C27.037 19.1897 26.7784 19.1116 26.5774 18.8599C26.5669 18.8439 26.5477 18.835 26.5005 18.7996ZM27.6767 18.1524C27.6732 18.1187 27.6714 18.0265 27.6505 17.9379C27.5806 17.6294 27.3778 17.4592 27.0947 17.4627C26.8046 17.4645 26.5757 17.6471 26.539 17.9609C26.5163 18.156 26.539 18.3687 26.5897 18.5602C26.6386 18.7429 26.7871 18.8616 26.9811 18.9042C27.3988 18.9911 27.6749 18.718 27.6767 18.1524Z" fill="#474F6A"/>
<path d="M77.342 18.8387C76.9523 19.2163 76.4892 19.2394 76.1746 18.906C75.8251 18.5355 75.8373 17.8121 76.1991 17.4539C76.5171 17.1401 76.9803 17.172 77.3403 17.5479C77.3508 17.4699 77.3577 17.4043 77.3682 17.3227C77.4381 17.3227 77.5098 17.3227 77.5902 17.3227C77.5902 17.8972 77.5902 18.4681 77.5902 19.055C77.5203 19.0585 77.4539 19.0621 77.3735 19.0656C77.3647 18.9876 77.3542 18.9167 77.342 18.8387ZM77.3577 18.1738C77.3577 17.7341 77.162 17.477 76.8107 17.461C76.4839 17.4451 76.2602 17.6667 76.2078 18.0603C76.1484 18.5 76.3092 18.8263 76.6237 18.899C77.0572 19 77.356 18.7039 77.3577 18.1738Z" fill="#474F6A"/>
<path d="M50.3573 17.9965C50.0253 17.9965 49.7264 17.9983 49.4276 17.9965C49.2703 17.9947 49.2703 17.993 49.2686 17.7908C49.6198 17.7908 49.9728 17.7908 50.3433 17.7908C50.3433 17.4025 50.3433 17.0391 50.3433 16.6579C50.436 16.6525 50.5094 16.649 50.6142 16.6437C50.6142 17.0231 50.6142 17.3919 50.6142 17.782C50.9917 17.782 51.3377 17.782 51.6803 17.782C51.7414 17.9522 51.6872 18.0018 51.5369 17.9983C51.2381 17.9912 50.941 17.9965 50.6195 17.9965C50.6195 18.3777 50.6195 18.7359 50.6195 19.1047C50.5233 19.1047 50.4499 19.1047 50.3573 19.1047C50.3573 18.743 50.3573 18.3848 50.3573 17.9965Z" fill="#474F6A"/>
<path d="M57.6364 17.5957C57.5718 17.633 57.5176 17.6649 57.4774 17.6879C57.3638 17.6117 57.2659 17.5159 57.1506 17.4769C56.9985 17.4255 56.8552 17.4752 56.7941 17.6454C56.7364 17.8049 56.829 17.9025 56.9601 17.9645C57.0929 18.0266 57.2327 18.0709 57.3655 18.1347C57.6015 18.2464 57.6871 18.406 57.6644 18.6613C57.6434 18.8918 57.5001 19.0514 57.2589 19.1135C56.8937 19.2074 56.5983 19.0815 56.4463 18.7553C56.5057 18.7163 56.5686 18.6755 56.5913 18.6613C56.7574 18.7571 56.8884 18.8617 57.037 18.906C57.182 18.9486 57.3341 18.8971 57.397 18.7287C57.4634 18.5549 57.3655 18.4397 57.2292 18.3635C57.0964 18.2872 56.9496 18.2376 56.8133 18.1649C56.5774 18.0408 56.4865 17.8741 56.5232 17.656C56.5599 17.4397 56.7329 17.2819 56.9723 17.2429C57.2642 17.1986 57.4966 17.3156 57.6364 17.5957Z" fill="#474F6A"/>
<path d="M35.4959 19.0567C35.4156 19.0567 35.3491 19.0567 35.2705 19.0567C35.2705 18.0372 35.2705 17.0248 35.2705 16.0017C35.3474 16.0017 35.4138 16.0017 35.4959 16.0017C35.4959 17.0159 35.4959 18.0265 35.4959 19.0567Z" fill="#474F6A"/>
<path d="M94.3357 17.5265C94.2168 17.5177 94.1347 17.5106 94.0526 17.5035C94.0141 17.3368 94.0141 17.3368 94.3252 17.2783C94.3252 17.0585 94.3252 16.8351 94.3252 16.5992C94.4091 16.5992 94.4737 16.5992 94.5629 16.5992C94.5629 16.8244 94.5629 17.0478 94.5629 17.2872C94.6834 17.2978 94.7848 17.3067 94.9002 17.3173C94.9002 17.3758 94.9002 17.4343 94.9002 17.5C94.7971 17.507 94.7009 17.5141 94.5803 17.523C94.5803 18.0301 94.5803 18.5336 94.5803 19.0496C94.4895 19.0549 94.4231 19.0602 94.3357 19.0656C94.3357 18.5531 94.3357 18.0478 94.3357 17.5265Z" fill="#474F6A"/>
<path d="M85.6592 17.3191C85.7256 17.3191 85.785 17.3191 85.8584 17.3191C85.8706 17.406 85.8829 17.4929 85.8986 17.6081C86.0873 17.3528 86.2866 17.1649 86.6309 17.2766C86.6134 17.351 86.5976 17.4149 86.5819 17.4769C86.0611 17.4645 85.8829 17.7801 85.8794 18.2695C85.8776 18.523 85.8794 18.7766 85.8794 19.0532C85.806 19.0585 85.7396 19.062 85.6592 19.0691C85.6592 18.4805 85.6592 17.906 85.6592 17.3191Z" fill="#474F6A"/>
<path d="M8.56152 19.0514C8.56152 18.4663 8.56152 17.8989 8.56152 17.3191C8.63842 17.3191 8.70483 17.3191 8.78696 17.3191C8.78696 17.8918 8.78696 18.4645 8.78696 19.0514C8.72056 19.0514 8.6489 19.0514 8.56152 19.0514Z" fill="#474F6A"/>
<path d="M8.94579 16.6277C8.81472 16.7128 8.73433 16.805 8.66967 16.7944C8.60326 16.782 8.51763 16.6774 8.50714 16.6047C8.50015 16.5568 8.61549 16.4486 8.67666 16.4486C8.74831 16.4469 8.81821 16.5355 8.94579 16.6277Z" fill="#474F6A"/>
</svg>
