<svg width="136" height="28" viewBox="0 0 136 28" fill="none" xmlns="http://www.w3.org/2000/svg">
<path d="M38.7113 0C39.074 0.0397163 39.4393 0.0570922 39.7996 0.121631C40.5927 0.263121 41.3983 0.377305 42.1738 0.593262C44.0202 1.10957 45.0134 2.39291 45.3812 4.21986C45.6214 5.41383 45.6514 6.62021 45.6589 7.8266C45.6714 9.41028 45.6739 10.9965 45.5988 12.5801C45.5563 13.4514 45.4062 14.3326 45.1935 15.1816C44.8108 16.6957 43.7825 17.6415 42.3039 18.1355C41.0005 18.5723 39.652 18.7213 38.2885 18.7287C35.2187 18.7436 32.1464 18.756 29.0767 18.6989C28.096 18.6816 27.1052 18.5078 26.147 18.2943C24.0105 17.8202 22.7645 16.4574 22.4643 14.3128C22.3167 13.2578 22.2467 12.1855 22.2317 11.1181C22.2066 9.42518 22.2191 7.72979 22.2867 6.03936C22.3167 5.25496 22.4518 4.46312 22.6395 3.69858C23.0147 2.16702 24.0105 1.16667 25.5091 0.64539C26.5673 0.278014 27.6606 0.134043 28.7715 0.0570922C28.9066 0.0471631 29.0392 0.0198582 29.1718 0C32.3491 0 35.5314 0 38.7113 0ZM33.9453 1.8617C33.9453 1.87411 33.9453 1.88901 33.9453 1.90142C32.4867 1.90142 31.0256 1.87411 29.567 1.91135C28.6914 1.93369 27.8108 2.01312 26.9476 2.14716C25.7342 2.3383 24.9862 3.07305 24.7485 4.27447C24.6509 4.76844 24.5684 5.27234 24.5584 5.77376C24.5208 7.63546 24.4958 9.49468 24.5083 11.3564C24.5133 12.245 24.5709 13.1362 24.6785 14.0199C24.8786 15.6507 25.5366 16.3929 27.1678 16.6362C28.3562 16.8124 29.5746 16.8496 30.7804 16.8621C33.2798 16.8894 35.7791 16.8819 38.2785 16.8397C39.2116 16.8248 40.1548 16.728 41.073 16.5667C42.1838 16.373 42.8743 15.6631 43.097 14.561C43.2121 13.9901 43.3147 13.4067 43.3247 12.8284C43.3597 10.7706 43.3797 8.71028 43.3522 6.65248C43.3397 5.81596 43.2371 4.97447 43.082 4.15035C42.8843 3.10035 42.2114 2.43262 41.1481 2.19681C40.6427 2.08511 40.1248 1.98333 39.6119 1.96844C37.7231 1.91383 35.8342 1.89397 33.9453 1.8617Z" fill="white"/>
<path d="M63.9798 0C64.3426 0.0397163 64.7079 0.0570922 65.0681 0.121631C65.8612 0.263121 66.6668 0.377305 67.4424 0.593262C69.2887 1.10957 70.282 2.39291 70.6497 4.21986C70.8899 5.41383 70.9199 6.62021 70.9274 7.8266C70.9399 9.41028 70.9424 10.9965 70.8674 12.5801C70.8249 13.4514 70.6747 14.3326 70.4621 15.1816C70.0793 16.6957 69.051 17.6415 67.5725 18.1355C66.269 18.5723 64.9205 18.7213 63.557 18.7287C60.4873 18.7436 57.415 18.756 54.3452 18.6989C53.3645 18.6816 52.3738 18.5078 51.4156 18.2943C49.279 17.8202 48.0331 16.4574 47.7329 14.3128C47.5853 13.2578 47.5152 12.1855 47.5002 11.1181C47.4752 9.42518 47.4877 7.72979 47.5552 6.03936C47.5853 5.25496 47.7204 4.46312 47.908 3.69858C48.2833 2.16702 49.279 1.16667 50.7776 0.64539C51.8359 0.278014 52.9292 0.134043 54.04 0.0570922C54.1751 0.0471631 54.3077 0.0198582 54.4403 0C57.6176 0 60.7975 0 63.9798 0ZM59.1963 1.8617C59.1963 1.87411 59.1963 1.88901 59.1963 1.90142C57.7477 1.90142 56.2967 1.87411 54.8481 1.91135C53.9625 1.93369 53.0718 2.01312 52.1987 2.15213C51.0003 2.34326 50.2547 3.07305 50.0196 4.26206C49.922 4.75603 49.8344 5.25993 49.8244 5.76135C49.7869 7.62305 49.7619 9.48227 49.7744 11.344C49.7794 12.2426 49.8369 13.1461 49.947 14.0372C50.1472 15.6532 50.8151 16.4028 52.4188 16.6362C53.6372 16.8124 54.8856 16.8447 56.1215 16.8645C58.1806 16.8993 60.2421 16.8918 62.3011 16.867C63.4394 16.8521 64.5803 16.8124 65.7111 16.6982C67.4449 16.522 68.268 15.7078 68.4731 13.995C68.5832 13.084 68.6307 12.1606 68.6432 11.2422C68.6658 9.72801 68.6658 8.21135 68.6182 6.69716C68.5932 5.85071 68.5031 4.99929 68.3505 4.16525C68.1554 3.10284 67.4724 2.43014 66.3991 2.19433C65.9037 2.08511 65.3959 1.98582 64.893 1.97092C62.9941 1.91383 61.0952 1.89397 59.1963 1.8617Z" fill="white"/>
<path d="M0 0.417035C0.117586 0.407106 0.237675 0.387248 0.355261 0.387248C6.9276 0.384766 13.4974 0.384766 20.0698 0.384766C20.1773 0.384766 20.2849 0.384766 20.415 0.384766C20.415 1.02023 20.415 1.62838 20.415 2.25391C17.4028 2.25391 14.4031 2.25391 11.3684 2.25391C11.3684 7.62306 11.3684 12.9773 11.3684 18.3489C10.5978 18.3489 9.86225 18.3489 9.10169 18.3489C9.10169 12.9997 9.10169 7.65285 9.10169 2.25888C6.04945 2.25888 3.02472 2.25888 0 2.25888C0 1.64576 0 1.03016 0 0.417035Z" fill="white"/>
<path d="M0 26.2176C0.100074 26.1804 0.200147 26.1432 0.240177 26.1283C0.465342 26.2574 0.640471 26.4063 0.845622 26.4659C1.06578 26.5304 1.29095 26.4634 1.38352 26.2127C1.47358 25.9644 1.32598 25.813 1.13333 25.7063C0.943194 25.602 0.730537 25.5301 0.537896 25.4308C0.212656 25.262 0.0850626 25.0386 0.127594 24.7432C0.172627 24.4379 0.4078 24.212 0.753054 24.1474C1.18337 24.068 1.53613 24.2393 1.72127 24.6265C1.64121 24.6762 1.55865 24.7283 1.52362 24.7506C1.31847 24.6389 1.15335 24.5074 0.968212 24.4552C0.773069 24.4031 0.590434 24.495 0.517881 24.7084C0.447829 24.9169 0.560412 25.0559 0.738043 25.1379C0.935688 25.2322 1.14584 25.2967 1.34349 25.3886C1.67623 25.5449 1.80132 25.7708 1.7663 26.1283C1.73628 26.4386 1.53863 26.6644 1.21089 26.7513C0.715526 26.8829 0.31273 26.7414 0.00500368 26.3343C0 26.2946 0 26.2549 0 26.2176Z" fill="white"/>
<path d="M73.5264 18.3687C73.5264 12.3716 73.5264 6.4017 73.5264 0.399571C73.6339 0.394607 73.7415 0.384678 73.8466 0.384678C78.9378 0.384678 84.0266 0.379713 89.1178 0.38716C90.0085 0.389642 90.8916 0.479004 91.7473 0.757018C92.9306 1.14425 93.6412 1.91872 93.8188 3.15737C93.9739 4.24461 94.0214 5.32687 93.6812 6.39177C93.3234 7.51375 92.5904 8.25843 91.4245 8.55631C91.397 8.56375 91.3695 8.57368 91.342 8.58609C91.3345 8.58858 91.332 8.60099 91.3094 8.63574C91.3995 8.6556 91.4796 8.67297 91.5596 8.68787C93.2984 9.04035 94.4267 10.2145 94.6294 11.9645C94.752 13.0393 94.712 14.1216 94.4693 15.184C94.1966 16.3804 93.4735 17.207 92.3227 17.6712C91.3094 18.0783 90.2437 18.257 89.1654 18.2967C87.6468 18.3538 86.1281 18.3588 84.607 18.3638C81.0369 18.3762 77.4668 18.3687 73.8966 18.3687C73.779 18.3687 73.6615 18.3687 73.5264 18.3687ZM75.7855 16.4772C75.9056 16.4847 75.9932 16.4946 76.0807 16.4946C79.9386 16.4896 83.7964 16.4921 87.6568 16.4673C88.5124 16.4623 89.3755 16.3953 90.2211 16.2737C91.4971 16.09 92.1701 15.4496 92.2952 14.3226C92.3752 13.5978 92.4003 12.8606 92.3677 12.1333C92.3077 10.8003 91.7848 10.2021 90.4538 10.0035C89.5006 9.8595 88.5274 9.77758 87.5617 9.77014C83.7439 9.74035 79.9236 9.75276 76.1058 9.75028C76.0007 9.75028 75.8956 9.75028 75.7855 9.75028C75.7855 12.0116 75.7855 14.2283 75.7855 16.4772ZM75.783 7.85631C75.8981 7.86375 75.9857 7.87616 76.0732 7.87616C79.8535 7.8712 83.6338 7.87368 87.4141 7.84886C88.1696 7.8439 88.9327 7.77191 89.6807 7.65773C90.8241 7.48397 91.3945 6.97014 91.5521 5.95241C91.6472 5.33184 91.6722 4.68645 91.6197 4.05844C91.5346 3.02085 91.1318 2.58149 90.0885 2.42262C89.283 2.30099 88.4573 2.26624 87.6417 2.26376C83.8014 2.24886 79.9611 2.25631 76.1208 2.25631C76.0132 2.25631 75.9081 2.25631 75.788 2.25631C75.783 4.13787 75.783 5.97723 75.783 7.85631Z" fill="white"/>
<path d="M97.3018 0.404541C98.0323 0.404541 98.7603 0.404541 99.5334 0.404541C99.5334 5.75631 99.5334 11.1081 99.5334 16.4971C104.344 16.4971 109.11 16.4971 113.889 16.4971C113.889 17.135 113.889 17.7333 113.889 18.3514C108.36 18.3514 102.841 18.3514 97.3018 18.3514C97.3018 12.3765 97.3018 6.39922 97.3018 0.404541Z" fill="white"/>
<path d="M135.925 0.377197C135.925 1.01018 135.925 1.62081 135.925 2.24386C129.355 2.24386 122.798 2.24386 116.218 2.24386C116.218 1.63074 116.218 1.01266 116.218 0.377197C122.775 0.377197 129.34 0.377197 135.925 0.377197Z" fill="white"/>
<path d="M135.928 7.8689C135.928 8.49691 135.928 9.10755 135.928 9.73308C129.351 9.73308 122.788 9.73308 116.211 9.73308C116.211 9.11003 116.211 8.49939 116.211 7.8689C122.773 7.8689 129.338 7.8689 135.928 7.8689Z" fill="white"/>
<path d="M116.208 18.2893C116.208 17.696 116.208 17.1276 116.208 16.5417C122.778 16.5417 129.335 16.5417 135.915 16.5417C135.915 17.1127 135.915 17.691 135.915 18.2893C129.36 18.2893 122.795 18.2893 116.208 18.2893Z" fill="white"/>
<path d="M26.9446 26.6845C26.8195 26.6845 26.7295 26.6845 26.5994 26.6845C26.5994 26.3444 26.5994 26.0118 26.5994 25.6792C26.5994 25.4508 26.6069 25.2224 26.5894 24.9966C26.5644 24.6615 26.3767 24.4678 26.0765 24.4381C25.7337 24.4058 25.4686 24.5547 25.3885 24.8774C25.331 25.1132 25.3259 25.3664 25.3184 25.6122C25.3084 25.9572 25.3159 26.3022 25.3159 26.6721C25.1959 26.6721 25.0958 26.6721 24.9657 26.6721C24.9657 26.1359 24.9782 25.6022 24.9632 25.071C24.9482 24.5324 24.5103 24.2544 24.0625 24.5175C23.8999 24.6118 23.7548 24.8427 23.7223 25.0313C23.6597 25.3888 23.6822 25.7611 23.6747 26.126C23.6697 26.3022 23.6747 26.481 23.6747 26.6746C23.5571 26.6746 23.4646 26.6746 23.3545 26.6746C23.3545 25.8703 23.3545 25.071 23.3545 24.2643C23.5772 24.1824 23.7048 24.232 23.6897 24.4256C23.9499 24.3313 24.2101 24.1923 24.4853 24.1501C24.8106 24.1005 25.0507 24.299 25.2284 24.5969C25.4435 24.3164 25.7087 24.1451 26.059 24.1377C26.5619 24.1278 26.9196 24.4182 26.9396 24.9122C26.9622 25.4905 26.9446 26.0739 26.9446 26.6845Z" fill="white"/>
<path d="M97.4045 26.6819C97.2794 26.6819 97.1893 26.6819 97.0617 26.6819C97.0617 26.3815 97.0617 26.0861 97.0617 25.7908C97.0592 25.5227 97.0692 25.2546 97.0517 24.989C97.0292 24.6539 96.8365 24.4603 96.5363 24.4329C96.1936 24.4007 95.9384 24.5521 95.8483 24.8748C95.8008 25.0436 95.7858 25.2248 95.7833 25.401C95.7733 25.8156 95.7808 26.2301 95.7808 26.667C95.6607 26.667 95.5581 26.667 95.4305 26.667C95.4305 26.1283 95.443 25.5947 95.428 25.061C95.413 24.5248 94.9727 24.2468 94.5249 24.5124C94.3622 24.6092 94.2196 24.8376 94.1871 25.0287C94.1246 25.3762 94.1471 25.7386 94.1396 26.0936C94.1346 26.2798 94.1396 26.4659 94.1396 26.672C94.0195 26.672 93.9269 26.672 93.8193 26.672C93.8193 25.8652 93.8193 25.0659 93.8193 24.2617C94.052 24.1723 94.1671 24.2369 94.1571 24.4181C94.4198 24.3237 94.68 24.1847 94.9552 24.145C95.2804 24.0954 95.5206 24.2964 95.6982 24.5918C95.9209 24.2989 96.1961 24.1301 96.5613 24.1326C97.0367 24.1351 97.3819 24.4106 97.4045 24.8798C97.4245 25.473 97.4045 26.0663 97.4045 26.6819Z" fill="white"/>
<path d="M63.7143 25.3987C63.0839 25.3987 62.4684 25.3987 61.8554 25.3987C61.7178 26.1731 62.3683 26.5107 63.5142 26.255C63.5417 26.3518 63.5692 26.4487 63.5942 26.543C63.0964 26.8607 62.0106 26.8533 61.5928 26.2625C61.1749 25.6717 61.26 24.6565 61.7904 24.1873C62.1632 23.8572 62.7711 23.7852 63.1889 24.021C63.6142 24.2643 63.8394 24.8277 63.7143 25.3987ZM61.8329 25.0214C62.3208 25.0214 62.7861 25.0214 63.249 25.0214C63.264 24.5572 63.0388 24.2742 62.646 24.2469C62.2032 24.2171 61.898 24.5026 61.8329 25.0214Z" fill="white"/>
<path d="M37.9375 26.3195C37.9375 26.873 37.9375 27.3769 37.9375 27.9032C37.8349 27.9032 37.7448 27.9032 37.6348 27.9032C37.6348 26.6868 37.6348 25.4755 37.6348 24.2468C37.7323 24.2468 37.8174 24.2468 37.92 24.2468C37.9325 24.356 37.9425 24.4578 37.955 24.5769C37.9975 24.5521 38.0276 24.5447 38.0426 24.5273C38.3628 24.1475 38.7656 24.0457 39.2284 24.2021C39.6938 24.361 39.9215 24.7283 39.969 25.19C39.9965 25.4507 39.9765 25.7262 39.919 25.9794C39.8264 26.3815 39.5612 26.6571 39.1434 26.7588C38.7056 26.8656 38.3353 26.7564 38.0476 26.4039C38.0326 26.3815 38.005 26.3691 37.9375 26.3195ZM39.6212 25.4134C39.6162 25.3663 39.6137 25.2372 39.5837 25.1131C39.4836 24.6812 39.1934 24.4429 38.7881 24.4478C38.3728 24.4503 38.0451 24.706 37.9925 25.1454C37.96 25.4184 37.9925 25.7163 38.0651 25.9844C38.1351 26.24 38.3478 26.4064 38.6255 26.4659C39.2234 26.5876 39.6187 26.2053 39.6212 25.4134Z" fill="white"/>
<path d="M110.721 26.3742C110.163 26.9029 109.5 26.9352 109.05 26.4685C108.55 25.9497 108.567 24.937 109.085 24.4356C109.54 23.9962 110.203 24.0409 110.719 24.5671C110.734 24.4579 110.744 24.3661 110.759 24.2519C110.859 24.2519 110.962 24.2519 111.077 24.2519C111.077 25.0561 111.077 25.8554 111.077 26.6771C110.977 26.682 110.882 26.687 110.766 26.6919C110.754 26.5827 110.739 26.4834 110.721 26.3742ZM110.744 25.4434C110.744 24.8278 110.464 24.4678 109.961 24.4455C109.493 24.4232 109.173 24.7334 109.098 25.2845C109.013 25.9001 109.243 26.3568 109.693 26.4586C110.314 26.6001 110.741 26.1856 110.744 25.4434Z" fill="white"/>
<path d="M72.0909 25.195C71.6155 25.195 71.1877 25.1975 70.7599 25.195C70.5347 25.1925 70.5347 25.19 70.5322 24.9071C71.0351 24.9071 71.5405 24.9071 72.0709 24.9071C72.0709 24.3634 72.0709 23.8546 72.0709 23.3209C72.2035 23.3134 72.3085 23.3085 72.4586 23.301C72.4586 23.8322 72.4586 24.3485 72.4586 24.8946C72.999 24.8946 73.4944 24.8946 73.9848 24.8946C74.0723 25.1329 73.9948 25.2024 73.7796 25.1975C73.3518 25.1875 72.9265 25.195 72.4661 25.195C72.4661 25.7287 72.4661 26.2301 72.4661 26.7464C72.3285 26.7464 72.2235 26.7464 72.0909 26.7464C72.0909 26.24 72.0909 25.7386 72.0909 25.195Z" fill="white"/>
<path d="M82.5104 24.6339C82.4178 24.6861 82.3403 24.7308 82.2828 24.763C82.1201 24.6563 81.98 24.5222 81.8149 24.4676C81.5972 24.3957 81.3921 24.4652 81.3045 24.7035C81.222 24.9269 81.3546 25.0634 81.5422 25.1503C81.7323 25.2371 81.9325 25.2992 82.1226 25.3886C82.4604 25.5449 82.583 25.7683 82.5504 26.1258C82.5204 26.4485 82.3153 26.6719 81.97 26.7588C81.4471 26.8903 81.0243 26.7141 80.8066 26.2574C80.8917 26.2027 80.9818 26.1457 81.0143 26.1258C81.252 26.2598 81.4396 26.4063 81.6523 26.4683C81.8599 26.5279 82.0776 26.4559 82.1677 26.2201C82.2627 25.9769 82.1226 25.8155 81.9275 25.7088C81.7373 25.602 81.5272 25.5325 81.332 25.4308C80.9943 25.257 80.8642 25.0237 80.9167 24.7183C80.9693 24.4155 81.217 24.1946 81.5597 24.14C81.9775 24.0779 82.3103 24.2417 82.5104 24.6339Z" fill="white"/>
<path d="M50.8149 26.6795C50.6998 26.6795 50.6048 26.6795 50.4922 26.6795C50.4922 25.2522 50.4922 23.8349 50.4922 22.4026C50.6023 22.4026 50.6973 22.4026 50.8149 22.4026C50.8149 23.8224 50.8149 25.2373 50.8149 26.6795Z" fill="white"/>
<path d="M135.049 24.5372C134.879 24.5248 134.762 24.5149 134.644 24.505C134.589 24.2716 134.589 24.2716 135.034 24.1897C135.034 23.8819 135.034 23.5692 135.034 23.239C135.154 23.239 135.247 23.239 135.375 23.239C135.375 23.5543 135.375 23.867 135.375 24.2021C135.547 24.217 135.692 24.2294 135.857 24.2443C135.857 24.3262 135.857 24.4082 135.857 24.5C135.71 24.5099 135.572 24.5199 135.4 24.5323C135.4 25.2422 135.4 25.9472 135.4 26.6695C135.27 26.677 135.174 26.6844 135.049 26.6919C135.049 25.9745 135.049 25.267 135.049 24.5372Z" fill="white"/>
<path d="M122.628 24.2468C122.723 24.2468 122.808 24.2468 122.913 24.2468C122.931 24.3684 122.948 24.49 122.971 24.6514C123.241 24.2939 123.526 24.0308 124.019 24.1872C123.994 24.2915 123.971 24.3808 123.949 24.4677C123.203 24.4503 122.948 24.8922 122.943 25.5773C122.941 25.9322 122.943 26.2872 122.943 26.6744C122.838 26.6819 122.743 26.6869 122.628 26.6968C122.628 25.8727 122.628 25.0684 122.628 24.2468Z" fill="white"/>
<path d="M12.2568 26.672C12.2568 25.8529 12.2568 25.0585 12.2568 24.2468C12.3669 24.2468 12.462 24.2468 12.5796 24.2468C12.5796 25.0486 12.5796 25.8504 12.5796 26.672C12.4845 26.672 12.3819 26.672 12.2568 26.672Z" fill="white"/>
<path d="M12.8071 23.2788C12.6195 23.398 12.5044 23.5271 12.4118 23.5122C12.3167 23.4948 12.1942 23.3483 12.1791 23.2466C12.1691 23.1795 12.3343 23.0281 12.4218 23.0281C12.5244 23.0256 12.6245 23.1497 12.8071 23.2788Z" fill="white"/>
</svg>
